<svg width="117" height="117" viewBox="0 0 117 117" fill="none" xmlns="http://www.w3.org/2000/svg">
<rect width="117" height="117" rx="58.5" fill="#3384F0"/>
<path d="M46.5373 38.036L78.8946 38.12L78.9785 70.4772C79.0242 70.8144 78.9969 71.1573 78.8984 71.483C78.8 71.8086 78.6327 72.1093 78.408 72.3647C78.1832 72.6201 77.9062 72.8242 77.5958 72.9632C77.2853 73.1022 76.9485 73.1729 76.6084 73.1705C76.2682 73.168 75.9325 73.0925 75.624 72.9491C75.3156 72.8057 75.0415 72.5976 74.8204 72.3391C74.5994 72.0805 74.4364 71.7774 74.3426 71.4504C74.2489 71.1234 74.2265 70.7801 74.2769 70.4437L74.1762 46.1967L42.054 78.3189C41.6087 78.7642 41.0047 79.0144 40.3749 79.0144C39.745 79.0144 39.141 78.7642 38.6957 78.3189C38.2504 77.8735 38.0002 77.2695 38.0002 76.6397C38.0002 76.0099 38.2504 75.4059 38.6957 74.9606L70.8179 42.8384L46.5709 42.7377C45.9408 42.7354 45.3373 42.483 44.8933 42.0358C44.4493 41.5887 44.2011 40.9834 44.2033 40.3533C44.2055 39.7231 44.458 39.1197 44.9052 38.6756C45.3523 38.2316 45.9576 37.9834 46.5877 37.9857L46.5373 38.036Z" fill="white"/>
</svg>
