<svg width="22" height="21" viewBox="0 0 22 21" fill="none" xmlns="http://www.w3.org/2000/svg">
<path d="M8.99964 18C8.99955 18.1858 9.05125 18.368 9.14893 18.5261C9.24661 18.6842 9.38641 18.8119 9.55264 18.895L11.5526 19.895C11.7051 19.9712 11.8746 20.0072 12.0449 19.9994C12.2152 19.9917 12.3807 19.9406 12.5257 19.8509C12.6707 19.7613 12.7903 19.636 12.8733 19.4871C12.9562 19.3381 12.9997 19.1705 12.9996 19V12C12.9999 11.5044 13.1841 11.0265 13.5166 10.659L20.7396 2.67C20.8691 2.52656 20.9542 2.34868 20.9847 2.15788C21.0152 1.96708 20.9898 1.77153 20.9115 1.59487C20.8333 1.41822 20.7055 1.26802 20.5436 1.16245C20.3818 1.05688 20.1929 1.00046 19.9996 1H1.99964C1.80625 1.00007 1.61702 1.05622 1.45489 1.16164C1.29276 1.26706 1.16467 1.41723 1.08614 1.59396C1.00762 1.7707 0.982026 1.96641 1.01246 2.15739C1.0429 2.34837 1.12807 2.52643 1.25764 2.67L8.48264 10.659C8.81518 11.0265 8.99942 11.5044 8.99964 12V18Z" stroke="#3384F0" stroke-width="2" stroke-linecap="round" stroke-linejoin="round"/>
</svg>
