<svg width="122" height="38" viewBox="0 0 122 38" fill="none" xmlns="http://www.w3.org/2000/svg">
<path d="M18.4931 8.52055C18.4931 7.9269 18.3762 7.33907 18.149 6.79061C17.9219 6.24215 17.5889 5.74381 17.1691 5.32404C16.7493 4.90427 16.251 4.57129 15.7025 4.34411C15.1541 4.11693 14.5662 4 13.9726 4V6.4947C14.2386 6.4947 14.5021 6.5471 14.7479 6.64891C14.9936 6.75072 15.217 6.89994 15.4051 7.08806C15.5932 7.27618 15.7424 7.4995 15.8442 7.74529C15.946 7.99108 15.9984 8.25451 15.9984 8.52055L18.4931 8.52055Z" fill="#08F2DC"/>
<path d="M13.5616 4C12.5863 4 11.6328 4.28923 10.8218 4.83111C10.0109 5.37299 9.37878 6.14319 9.00552 7.0443C8.63227 7.94542 8.53461 8.93698 8.72489 9.8936C8.91518 10.8502 9.38486 11.7289 10.0745 12.4186C10.7642 13.1083 11.6429 13.578 12.5996 13.7683C13.5562 13.9585 14.5477 13.8609 15.4488 13.4876C16.35 13.1144 17.1202 12.4823 17.662 11.6713C18.2039 10.8603 18.4931 9.90687 18.4931 8.93151H13.5616V4Z" fill="#3384F0"/>
<path d="M18.4931 15.5069V24.9589H18.4835C18.2683 29.9885 14.1236 34 9.04109 34V24.9589H0C6.06085e-08 19.8764 4.01154 15.7313 9.04109 15.5161V15.5069H18.4931Z" fill="#3384F0"/>
<path d="M35.6572 15H33.5292V4.948H35.6572V15ZM39.4908 10.926V15H37.5448V7.524H39.3368V8.588C39.8828 7.846 40.6528 7.384 41.6328 7.384C43.1308 7.384 44.1668 8.364 44.1668 10.17V15H42.2348V10.828C42.2348 9.722 41.8008 9.106 40.9188 9.106C40.1488 9.106 39.4908 9.722 39.4908 10.926ZM48.4349 15H46.5029V9.19H44.9909V7.524H46.5029V7.118C46.5029 5.634 47.3009 4.794 48.8549 4.794C49.3309 4.794 49.7369 4.878 50.0589 5.018V6.558C49.8489 6.474 49.5689 6.432 49.3169 6.432C48.7849 6.432 48.4349 6.642 48.4349 7.16V7.524H50.3809V9.19H48.4349V15ZM54.4796 15.14C52.3096 15.14 50.6856 13.432 50.6856 11.262C50.6856 9.078 52.3096 7.384 54.4796 7.384C56.6496 7.384 58.2736 9.078 58.2736 11.262C58.2736 13.432 56.6496 15.14 54.4796 15.14ZM54.4796 13.418C55.4456 13.418 56.2716 12.648 56.2716 11.262C56.2716 9.876 55.4456 9.12 54.4796 9.12C53.5136 9.12 52.6876 9.876 52.6876 11.262C52.6876 12.648 53.5136 13.418 54.4796 13.418ZM62.5567 17.842C60.5407 17.842 59.1967 16.75 59.1127 15.028H60.9887C61.0727 15.882 61.6187 16.33 62.5427 16.33C63.6207 16.33 64.1807 15.756 64.1807 14.678V13.586C63.7747 14.3 63.0047 14.72 62.0947 14.72C60.2607 14.72 58.8887 13.166 58.8887 11.052C58.8887 8.882 60.1767 7.384 62.0247 7.384C63.0327 7.384 63.7887 7.776 64.3347 8.546V7.524H66.1127V14.65C66.1127 16.638 64.7687 17.842 62.5567 17.842ZM60.8347 11.052C60.8347 12.27 61.4647 13.04 62.4727 13.04C63.4947 13.04 64.1667 12.242 64.1667 11.066C64.1667 9.848 63.4947 9.064 62.4727 9.064C61.4787 9.064 60.8347 9.834 60.8347 11.052ZM69.815 11.374V15H67.869V7.524H69.661V8.966C70.207 8.014 71.369 7.44 72.573 7.44V9.456C70.921 9.33 69.815 9.722 69.815 11.374ZM78.0358 15V14.076C77.5458 14.776 76.8038 15.14 75.7818 15.14C74.2278 15.14 73.1918 14.23 73.1918 12.83C73.1918 11.374 74.3678 10.59 76.5518 10.59C76.9718 10.59 77.3358 10.618 77.7978 10.674V10.226C77.7978 9.386 77.3218 8.896 76.5098 8.896C75.6698 8.896 75.1658 9.386 75.0958 10.226H73.3458C73.4578 8.504 74.7038 7.384 76.5098 7.384C78.4698 7.384 79.6178 8.462 79.6178 10.296V15H78.0358ZM75.0258 12.774C75.0258 13.404 75.4738 13.796 76.2018 13.796C77.1958 13.796 77.7978 13.25 77.7978 12.382V11.85C77.3358 11.78 77.0138 11.752 76.6778 11.752C75.5718 11.752 75.0258 12.102 75.0258 12.774ZM88.7568 11.262C88.7568 13.474 87.4548 15.14 85.4388 15.14C84.5568 15.14 83.8008 14.762 83.2408 14.034V17.702H81.2948V7.524H83.0868V8.616C83.6608 7.818 84.4868 7.384 85.4388 7.384C87.4548 7.384 88.7568 9.064 88.7568 11.262ZM86.7548 11.262C86.7548 9.862 85.9568 9.106 85.0048 9.106C84.0528 9.106 83.2548 9.848 83.2548 11.262C83.2548 12.676 84.0528 13.404 85.0048 13.404C85.9568 13.404 86.7548 12.69 86.7548 11.262ZM91.9497 10.926V15H90.0037V4.948H91.9497V8.504C92.4677 7.818 93.1117 7.384 94.0917 7.384C95.5897 7.384 96.6257 8.364 96.6257 10.17V15H94.6937V10.828C94.6937 9.722 94.2597 9.106 93.3777 9.106C92.6077 9.106 91.9497 9.722 91.9497 10.926ZM104.763 7.524L101.123 17.702H99.0091L100.073 14.916L97.1331 7.524H99.2331L101.109 12.648L102.817 7.524H104.763ZM38.0232 34H35.8952V25.866H32.7312V23.948H41.2012V25.866H38.0232V34ZM44.6346 34.126C42.3946 34.126 40.8966 32.572 40.8966 30.234C40.8966 28.008 42.4506 26.384 44.6066 26.384C46.9726 26.384 48.5406 28.302 48.1906 30.738H42.8846C43.0106 31.956 43.5986 32.628 44.5926 32.628C45.4466 32.628 46.0206 32.208 46.2446 31.466H48.1766C47.7566 33.16 46.4546 34.126 44.6346 34.126ZM44.5646 27.812C43.6546 27.812 43.0806 28.4 42.9126 29.506H46.1326C46.0766 28.47 45.4886 27.812 44.5646 27.812ZM52.5073 34.14C50.3513 34.14 48.8673 32.544 48.8673 30.262C48.8673 28.022 50.4073 26.384 52.5073 26.384C54.4533 26.384 55.8953 27.7 56.1333 29.716H54.0893C53.9913 28.722 53.3893 28.106 52.5073 28.106C51.4993 28.106 50.8553 28.932 50.8553 30.262C50.8553 31.606 51.4853 32.418 52.5073 32.418C53.4033 32.418 53.9773 31.83 54.0893 30.808H56.1333C55.9093 32.866 54.5093 34.14 52.5073 34.14ZM59.3286 29.926V34H57.3826V23.948H59.3286V27.504C59.8466 26.818 60.4906 26.384 61.4706 26.384C62.9686 26.384 64.0046 27.364 64.0046 29.17V34H62.0726V29.828C62.0726 28.722 61.6386 28.106 60.7566 28.106C59.9866 28.106 59.3286 28.722 59.3286 29.926ZM67.6275 29.926V34H65.6815V26.524H67.4735V27.588C68.0195 26.846 68.7895 26.384 69.7695 26.384C71.2675 26.384 72.3035 27.364 72.3035 29.17V34H70.3715V29.828C70.3715 28.722 69.9375 28.106 69.0555 28.106C68.2855 28.106 67.6275 28.722 67.6275 29.926ZM77.2843 34.14C75.1143 34.14 73.4903 32.432 73.4903 30.262C73.4903 28.078 75.1143 26.384 77.2843 26.384C79.4543 26.384 81.0783 28.078 81.0783 30.262C81.0783 32.432 79.4543 34.14 77.2843 34.14ZM77.2843 32.418C78.2503 32.418 79.0763 31.648 79.0763 30.262C79.0763 28.876 78.2503 28.12 77.2843 28.12C76.3183 28.12 75.4923 28.876 75.4923 30.262C75.4923 31.648 76.3183 32.418 77.2843 32.418ZM84.2801 34H82.3201V23.948H84.2801V34ZM89.3292 34.14C87.1592 34.14 85.5352 32.432 85.5352 30.262C85.5352 28.078 87.1592 26.384 89.3292 26.384C91.4992 26.384 93.1232 28.078 93.1232 30.262C93.1232 32.432 91.4992 34.14 89.3292 34.14ZM89.3292 32.418C90.2952 32.418 91.1212 31.648 91.1212 30.262C91.1212 28.876 90.2952 28.12 89.3292 28.12C88.3632 28.12 87.5372 28.876 87.5372 30.262C87.5372 31.648 88.3632 32.418 89.3292 32.418ZM97.4064 36.842C95.3904 36.842 94.0464 35.75 93.9624 34.028H95.8384C95.9224 34.882 96.4684 35.33 97.3924 35.33C98.4704 35.33 99.0304 34.756 99.0304 33.678V32.586C98.6244 33.3 97.8544 33.72 96.9444 33.72C95.1104 33.72 93.7384 32.166 93.7384 30.052C93.7384 27.882 95.0264 26.384 96.8744 26.384C97.8824 26.384 98.6384 26.776 99.1844 27.546V26.524H100.962V33.65C100.962 35.638 99.6184 36.842 97.4064 36.842ZM95.6844 30.052C95.6844 31.27 96.3144 32.04 97.3224 32.04C98.3444 32.04 99.0164 31.242 99.0164 30.066C99.0164 28.848 98.3444 28.064 97.3224 28.064C96.3284 28.064 95.6844 28.834 95.6844 30.052ZM104.973 24.788C104.973 25.446 104.441 25.936 103.671 25.936C102.915 25.936 102.383 25.446 102.383 24.788C102.383 24.102 102.915 23.612 103.671 23.612C104.441 23.612 104.973 24.102 104.973 24.788ZM104.665 34H102.719V26.524H104.665V34ZM109.644 34.126C107.404 34.126 105.906 32.572 105.906 30.234C105.906 28.008 107.46 26.384 109.616 26.384C111.982 26.384 113.55 28.302 113.2 30.738H107.894C108.02 31.956 108.608 32.628 109.602 32.628C110.456 32.628 111.03 32.208 111.254 31.466H113.186C112.766 33.16 111.464 34.126 109.644 34.126ZM109.574 27.812C108.664 27.812 108.09 28.4 107.922 29.506H111.142C111.086 28.47 110.498 27.812 109.574 27.812ZM120.818 31.606C120.818 33.174 119.628 34.14 117.5 34.14C115.372 34.14 114.182 33.118 114.028 31.452H115.89C115.904 32.222 116.562 32.712 117.528 32.712C118.284 32.712 118.858 32.474 118.858 31.942C118.858 31.466 118.55 31.27 117.836 31.13L116.492 30.878C115.148 30.64 114.336 29.898 114.336 28.736C114.336 27.35 115.526 26.384 117.388 26.384C119.264 26.384 120.552 27.378 120.692 28.988H118.83C118.76 28.26 118.214 27.812 117.388 27.812C116.674 27.812 116.198 28.078 116.198 28.554C116.198 29.002 116.506 29.184 117.178 29.31L118.62 29.576C120.076 29.856 120.818 30.528 120.818 31.606Z" fill="#3384F0"/>
</svg>
