<svg width="45" height="73" viewBox="0 0 45 73" fill="none" xmlns="http://www.w3.org/2000/svg">
<path d="M45 11C45 9.55546 44.7155 8.12507 44.1627 6.79048C43.6099 5.4559 42.7996 4.24327 41.7782 3.22183C40.7567 2.20038 39.5441 1.39013 38.2095 0.837326C36.8749 0.284524 35.4445 1.89429e-07 34 0V6.07044C34.6474 6.07044 35.2884 6.19795 35.8865 6.44568C36.4845 6.69342 37.028 7.05653 37.4857 7.51428C37.9435 7.97203 38.3066 8.51546 38.5543 9.11354C38.8021 9.71162 38.9296 10.3526 38.9296 11L45 11Z" fill="#08F2DC"/>
<path d="M33 4.77635e-06C30.6266 4.74805e-06 28.3065 0.703792 26.3332 2.02237C24.3598 3.34095 22.8217 5.21509 21.9134 7.4078C21.0052 9.60052 20.7676 12.0133 21.2306 14.3411C21.6936 16.6689 22.8365 18.8071 24.5147 20.4853C26.1929 22.1635 28.3311 23.3064 30.6589 23.7694C32.9867 24.2325 35.3995 23.9948 37.5922 23.0866C39.7849 22.1783 41.6591 20.6402 42.9776 18.6668C44.2962 16.6935 45 14.3734 45 12H33V4.77635e-06Z" fill="#3384F0"/>
<path d="M45 28V51H44.9766C44.453 63.2386 34.3675 73 22 73V51H0C1.47481e-07 38.6325 9.76141 28.546 22 28.0225V28H45Z" fill="#3384F0"/>
</svg>
